<?xml version="1.0" encoding="UTF-8"?>
<svg xmlns="http://www.w3.org/2000/svg" viewBox="0 0 480 360" role="img" aria-label="URL flowing into a TV screen">
  <!-- Laptop -->
  <rect x="40" y="80" width="180" height="120" rx="12" fill="#FFF8F0" stroke="#3E2B4F" stroke-width="3"/>
  <rect x="50" y="92" width="160" height="92" rx="6" fill="#C9B8E0"/>
  <rect x="64" y="106" width="120" height="10" rx="3" fill="#FFF8F0"/>
  <rect x="64" y="124" width="80"  height="8"  rx="3" fill="#FFF8F0" opacity="0.7"/>
  <rect x="64" y="140" width="100" height="8"  rx="3" fill="#FFF8F0" opacity="0.7"/>
  <rect x="16" y="200" width="228" height="8" rx="4" fill="#3E2B4F"/>

  <!-- Arrow -->
  <path d="M250 140 C 290 140, 310 200, 340 200" stroke="#E09478" stroke-width="4" fill="none" stroke-linecap="round" stroke-dasharray="2 8"/>
  <path d="M336 193 L346 200 L336 207" stroke="#E09478" stroke-width="4" fill="none" stroke-linecap="round" stroke-linejoin="round"/>

  <!-- TV -->
  <rect x="310" y="130" width="150" height="110" rx="10" fill="#FDF3D6" stroke="#3E2B4F" stroke-width="3"/>
  <rect x="324" y="144" width="122" height="82" rx="5" fill="#F4B9A1"/>
  <circle cx="385" cy="185" r="16" fill="#FFF8F0"/>
  <rect x="340" y="214" width="90" height="4" rx="2" fill="#3E2B4F"/>
  <rect x="360" y="240" width="50" height="8" rx="2" fill="#3E2B4F"/>
  <rect x="340" y="256" width="90" height="4" rx="2" fill="#3E2B4F"/>

  <!-- Accents -->
  <circle cx="100" cy="50"  r="16" fill="#B5DABD" stroke="#3E2B4F" stroke-width="2"/>
  <circle cx="430" cy="80"  r="12" fill="#E8B4C6" stroke="#3E2B4F" stroke-width="2"/>
  <path d="M40 320 L60 300 L80 320 L100 300" stroke="#3E2B4F" stroke-width="2" fill="none" stroke-linecap="round"/>
</svg>
